PathFileType	4	(X/Y/Z)	/Users/niels/Desktop/University/Third Semester/Perception and Action/Exam/Gymnastics Motion Tracking/Code for Gym Tracking/Analyzed Data/Webcam_Backflip/id6_2_baseline_Sports2D/id6_2_baseline_Sports2D_px_person00.trc
DataRate	CameraRate	NumFrames	NumMarkers	Units	OrigDataRate	OrigDataStartFrame	OrigNumFrames
29.810126582278482	29.810126582278482	7	22	m	29.810126582278482	19	158
Frame#	Time	Hip			RHip			RKnee			RAnkle			RBigToe			RSmallToe			RHeel			LHip			LKnee			LAnkle			LBigToe			LSmallToe			LHeel			Neck			Head			Nose			RShoulder			RElbow			RWrist			LShoulder			LElbow			LWrist		
		X1	Y1	Z1	X2	Y2	Z2	X3	Y3	Z3	X4	Y4	Z4	X5	Y5	Z5	X6	Y6	Z6	X7	Y7	Z7	X8	Y8	Z8	X9	Y9	Z9	X10	Y10	Z10	X11	Y11	Z11	X12	Y12	Z12	X13	Y13	Z13	X14	Y14	Z14	X15	Y15	Z15	X16	Y16	Z16	X17	Y17	Z17	X18	Y18	Z18	X19	Y19	Z19	X20	Y20	Z20	X21	Y21	Z21	X22	Y22	Z22
19	0.6373673036093418	0.9831446114348086	-0.5809683299462773	0.0	0.9843401198279501	-0.5814325043675918	0.0	0.9864535707258731	-0.6834578138045152	0.0	0.9707579041580667	-0.7781316489621488	0.0	0.9967889023826195	-0.7946663003805684	0.0	0.9917922257908328	-0.7977301411380959	0.0	0.9626122446839817	-0.7923784518291674	0.0	0.9792171045708598	-0.5782457240884914	0.0	0.9834371370215885	-0.6816611810323124	0.0	0.9705782049339049	-0.7735561982965244	0.0	0.9964904888568589	-0.7933169099697996	0.0	0.9931461961179064	-0.7895513721959855	0.0	0.9621517540486164	-0.7854273302028116	0.0	0.9877904304455137	-0.45021386312426176	0.0	1.0127704375241087	-0.37979582103167897	0.0	1.0218829841948225	-0.4151971626364318	0.0	0.9877061136768387	-0.45897999721107596	0.0	1.0479054251387745	-0.4252691053436343	0.0	1.0965938071694634	-0.3856983696897347	0.0	0.9771532557380254	-0.4547665093417489	0.0	1.0125333379362194	-0.42598725171084734	0.0	1.0411760635867522	-0.3921577174272742	0.0
20	0.6709129511677282	0.9843433478740412	-0.5806872149775346	0.0	0.9857107051074389	-0.5810508868627006	0.0	0.9872025388096369	-0.6829444358599006	0.0	0.9706938163916663	-0.7770988118214861	0.0	0.9966177885050364	-0.7942457855153802	0.0	0.9917922211496563	-0.796726244814152	0.0	0.9628581183303706	-0.7916555105181192	0.0	0.9804093805218417	-0.5780830053267955	0.0	0.9840140319976711	-0.6812288327069503	0.0	0.9699927878696346	-0.7733174020557836	0.0	0.9955476781997368	-0.7937536182181214	0.0	0.9917735721249183	-0.7898898662349553	0.0	0.9619809202194037	-0.7849259863456008	0.0	0.9885819162486882	-0.44919121673002865	0.0	1.012985640647007	-0.3781555505386128	0.0	1.0217484937047585	-0.4134957069932875	0.0	0.9886208823316873	-0.45658141262284213	0.0	1.044160008908972	-0.41489984006384123	0.0	1.0874205969843125	-0.3692005573432367	0.0	0.9784236441141194	-0.4531223798156236	0.0	1.0122732616586811	-0.4172340972929122	0.0	1.0374534140744613	-0.3785507498735751	0.0
21	0.7044585987261146	0.9854820319188314	-0.5808966272002084	0.0	0.9868675544788905	-0.580766206846223	0.0	0.9877044015137396	-0.6826226488396252	0.0	0.9705227625825584	-0.7763936411776016	0.0	0.9969135124616292	-0.7942818204552434	0.0	0.9923170853184613	-0.7962615290297939	0.0	0.9631076249458332	-0.7913561286236247	0.0	0.9821350994993671	-0.5780507082548294	0.0	0.9847299898585429	-0.6811269095109196	0.0	0.9696774383383209	-0.7733625351810081	0.0	0.9955487839910612	-0.7942796065293322	0.0	0.9915588470485723	-0.790286179978711	0.0	0.9621494564284542	-0.7848530963594446	0.0	0.9896865037905812	-0.44818564954525086	0.0	1.0134954747538572	-0.3763455538930228	0.0	1.0215532109532508	-0.4121426217046773	0.0	0.9898264166702112	-0.4543254434629019	0.0	1.03977990071158	-0.40662393234777167	0.0	1.0776071296402134	-0.3557145610793166	0.0	0.980377722904225	-0.45167926296308786	0.0	1.0137697305492617	-0.4102665618246922	0.0	1.0395660328520837	-0.3675501772633854	0.0
22	0.738004246284501	0.9865049426430036	-0.5814269594014917	0.0	0.9877715756438512	-0.5805724663062434	0.0	0.9879014582861199	-0.6825860700598974	0.0	0.970225225377158	-0.776110396001635	0.0	0.9974595376440408	-0.794733608022141	0.0	0.9931762775666613	-0.7963983918819664	0.0	0.9633251258872872	-0.7914854086921504	0.0	0.9841560800046344	-0.5781502966621549	0.0	0.9854382333834899	-0.6814057718582491	0.0	0.9695917774909769	-0.7736930347601664	0.0	0.9962435253032976	-0.7948081961679581	0.0	0.9922005723370566	-0.7907032259989012	0.0	0.962468436758745	-0.7851423527096991	0.0	0.9910548795624532	-0.44738773839751056	0.0	1.0143106443232335	-0.3747912394680138	0.0	1.021478499610911	-0.41132954305035807	0.0	0.9912664988796226	-0.45249384061391446	0.0	1.0355599702204197	-0.40038937532482316	0.0	1.0681575526011482	-0.3451649536139212	0.0	0.982770055478222	-0.4505260006696291	0.0	1.01597519494717	-0.404863674361419	0.0	1.0430127238474112	-0.35856772047781654	0.0
23	0.7715498938428874	0.9872960480224492	-0.5820848142921303	0.0	0.9883930564819146	-0.580475206586736	0.0	0.9878314424553476	-0.6828496986034925	0.0	0.969879086121103	-0.77613950478962	0.0	0.9981099411462723	-0.7954201316834212	0.0	0.9941937224782365	-0.7969580988627113	0.0	0.9635289807362889	-0.7918651160407819	0.0	0.9860891828412025	-0.578383521372646	0.0	0.986019215740976	-0.6819552659677885	0.0	0.9696775264979692	-0.7741555294425388	0.0	0.9972834264351557	-0.7952707144852648	0.0	0.9932593486892981	-0.79110658120472	0.0	0.9627847174799848	-0.7856026416263996	0.0	0.9925897193447519	-0.44699710975498724	0.0	1.0152666382887046	-0.3738754264517056	0.0	1.0216690392476844	-0.41111439497527985	0.0	0.9928203335084838	-0.45123722849322195	0.0	1.0322547642075945	-0.39587258932499647	0.0	1.060093527559857	-0.3373328662612156	0.0	0.9852948245037816	-0.44972819543652676	0.0	1.0181376626289913	-0.4008969968159647	0.0	1.0449291176465405	-0.3514003358921147	0.0
24	0.8050955414012739	0.9877414928039033	-0.5827276554421691	0.0	0.9886663385839644	-0.5804944959202258	0.0	0.9875988636403283	-0.6833547067955682	0.0	0.9696130731507231	-0.7762982232289374	0.0	0.9987735841396931	-0.7961817710204289	0.0	0.9952048318845567	-0.7977146286827596	0.0	0.9637465311861133	-0.7923170913505361	0.0	0.9875354490662392	-0.578710256033496	0.0	0.986439232367623	-0.6825837784008479	0.0	0.9698752998460433	-0.7745799322413299	0.0	0.9983496209049809	-0.7956677493245947	0.0	0.9943855072634415	-0.7915093339528539	0.0	0.9630504927220742	-0.7860762240837753	0.0	0.9941550142161925	-0.44706329198585043	0.0	1.016325330812819	-0.37376400255718967	0.0	1.0221990309111384	-0.4114030932706596	0.0	0.9943902949471388	-0.45049037567551375	0.0	1.0304302209903526	-0.39272590789114215	0.0	1.0543771173079006	-0.33192207764446996	0.0	0.98769005871804	-0.4492452477712296	0.0	1.019926203741376	-0.3982387316121401	0.0	1.045191421973465	-0.3461641517871584	0.0
25	0.8386411889596603	0.9877544250890481	-0.5832000205932086	0.0	0.9884923842332849	-0.5806047830275715	0.0	0.9873352486682838	-0.6839531352352222	0.0	0.9695242038642767	-0.7764531540929445	0.0	0.9993992020614804	-0.7969235092276981	0.0	0.9960781398759371	-0.7985098594144348	0.0	0.963964745481661	-0.7927483990140782	0.0	0.9881828181140585	-0.5790198301169489	0.0	0.9867094278401876	-0.6830900768167493	0.0	0.9701103675072017	-0.7748888557382281	0.0	0.9992151825523466	-0.7960835434335287	0.0	0.9953436908451675	-0.7919786848790703	0.0	0.9632374058131722	-0.7865009993326795	0.0	0.9956268718190413	-0.44739597589786273	0.0	1.0176574273980183	-0.3743047961326887	0.0	1.0230918505947695	-0.4119338904675578	0.0	0.995925982237999	-0.4500294698914541	0.0	1.0304427526522286	-0.39070259415611314	0.0	1.051835978615719	-0.32863183163356274	0.0	0.989776984301358	-0.4489144822466064	0.0	1.0215572340307633	-0.3966633284608014	0.0	1.045296492849981	-0.3428549570209643	0.0
